<svg width="319" height="332" viewBox="0 0 319 332" fill="none" xmlns="http://www.w3.org/2000/svg">
<path d="M1 75.8421V257.954L121.339 327.247V294.327L31.4547 239.459V93.3504L110.242 47.3602L191.743 164.37H240.075L128.121 1L1 75.8421Z" fill="white"/>
<path d="M131.696 167.329H81.7604L194.702 331.439L318 257.954V75.8421L191.743 1V37.7429L290.874 93.3504L288.408 239.459L212.087 283.353L131.696 167.329Z" fill="white"/>
<path d="M1 75.8421V257.954L121.339 327.247V294.327L31.4547 239.459V93.3504L110.242 47.3602L191.743 164.37H240.075L128.121 1L1 75.8421Z" stroke="#ACACAC" stroke-width="0.246597"/>
<path d="M131.696 167.329H81.7604L194.702 331.439L318 257.954V75.8421L191.743 1V37.7429L290.874 93.3504L288.408 239.459L212.087 283.353L131.696 167.329Z" stroke="#ACACAC" stroke-width="0.246597"/>
</svg>
