<svg width="304" height="47" viewBox="0 0 304 47" fill="none" xmlns="http://www.w3.org/2000/svg">
<path d="M1 12.2681V36.9938L17.3388 46.402V41.9323L5.13491 34.4827V14.6452L15.8321 8.401L26.8976 24.2878H33.4599L18.2595 2.10657L1 12.2681Z" fill="url(#paint0_linear_233_2968)"/>
<path d="M18.745 24.6895H11.965L27.2994 46.9712L44.0399 36.9938V12.2681L26.8976 2.10657V7.09524L40.357 14.6452L40.0222 34.4827L29.6598 40.4424L18.745 24.6895Z" fill="url(#paint1_linear_233_2968)"/>
<path d="M1 12.2681V36.9938L17.3388 46.402V41.9323L5.13491 34.4827V14.6452L15.8321 8.401L26.8976 24.2878H33.4599L18.2595 2.10657L1 12.2681Z" stroke="#ACACAC" stroke-width="0.0334811"/>
<path d="M18.745 24.6895H11.965L27.2994 46.9712L44.0399 36.9938V12.2681L26.8976 2.10657V7.09524L40.357 14.6452L40.0222 34.4827L29.6598 40.4424L18.745 24.6895Z" stroke="#ACACAC" stroke-width="0.0334811"/>
<path d="M71.6396 11.5733C72.8885 11.5733 74.1135 11.7175 75.3144 12.0057C76.5393 12.2939 77.7042 12.7262 78.8091 13.3027C79.9139 13.8551 80.8867 14.5997 81.7273 15.5364C82.592 16.4731 83.0603 17.59 83.1324 18.887V20.4001V31.893C82.9883 33.3341 82.1957 34.1147 80.7546 34.2348C80.0821 34.2348 79.4936 34.0186 78.9892 33.5863C78.5088 33.1299 78.2687 32.5655 78.2687 31.893V20.0038C78.2206 19.2593 77.9324 18.6468 77.404 18.1664C76.8996 17.662 76.3232 17.2657 75.6747 16.9775C75.0502 16.6893 74.3897 16.4731 73.6931 16.329C73.0206 16.1849 72.3361 16.1128 71.6396 16.1128C70.943 16.1128 70.2465 16.1849 69.5499 16.329C68.8774 16.4731 68.2169 16.6893 67.5684 16.9775C66.9439 17.2657 66.3675 17.662 65.8391 18.1664C65.3347 18.6468 65.0585 19.2593 65.0104 20.0038V31.893C64.8904 33.3341 64.1098 34.1147 62.6686 34.2348C61.9961 34.2348 61.4077 34.0186 60.9033 33.5863C60.4229 33.1299 60.1827 32.5655 60.1827 31.893V20.4001V18.887C60.2548 17.59 60.7111 16.4731 61.5518 15.5364C62.3924 14.5997 63.3652 13.8551 64.47 13.3027C65.5749 12.7262 66.7278 12.2939 67.9287 12.0057C69.1536 11.7175 70.3906 11.5733 71.6396 11.5733ZM95.7781 28.2182C95.7781 27.5456 96.0063 26.9812 96.4627 26.5249C96.943 26.0445 97.5195 25.8043 98.192 25.8043H103.704L102.768 23.1382C102.383 22.1535 101.999 21.2288 101.615 20.3641C101.254 19.4754 100.834 18.6708 100.354 17.9503C99.9213 17.2297 99.4289 16.8454 98.8765 16.7974C98.3001 16.8454 97.7837 17.2297 97.3273 17.9503C96.871 18.6708 96.4507 19.4754 96.0664 20.3641C95.7061 21.2288 95.3338 22.1535 94.9495 23.1382L91.5269 32.5055C91.2867 33.0098 90.9744 33.4302 90.5901 33.7664C90.2299 34.0787 89.6774 34.2348 88.9329 34.2348C88.2363 34.2348 87.6599 33.9946 87.2035 33.5142C86.7712 33.0339 86.5791 32.4574 86.6271 31.7849C86.6511 31.4727 86.7232 31.1844 86.8433 30.9202L90.8063 20.6884C91.9112 17.9983 93.016 15.8246 94.1209 14.1673C95.2017 12.5341 96.7869 11.7054 98.8765 11.6814C100.942 11.7054 102.515 12.5341 103.596 14.1673C104.701 15.7766 105.806 17.9503 106.911 20.6884L110.874 30.9202C110.994 31.1844 111.066 31.4727 111.09 31.7849C111.138 32.4574 110.934 33.0339 110.477 33.5142C110.045 33.9946 109.481 34.2348 108.784 34.2348C107.992 34.2348 107.403 34.0787 107.019 33.7664C106.659 33.4302 106.358 33.0098 106.118 32.5055L105.434 30.632H98.192C97.5195 30.632 96.955 30.3918 96.4987 29.9115C96.0183 29.4551 95.7781 28.8907 95.7781 28.2182ZM114.008 14.9599C114.008 14.2874 114.236 13.723 114.693 13.2666C115.173 12.7863 115.75 12.5461 116.422 12.5461H137.39C138.063 12.5461 138.639 12.7743 139.12 13.2306C139.576 13.711 139.804 14.2874 139.804 14.9599C139.804 15.6325 139.564 16.2089 139.083 16.6893C138.627 17.1456 138.063 17.3738 137.39 17.3738H129.356V31.965C129.212 33.4062 128.419 34.1868 126.978 34.3068C126.306 34.3068 125.717 34.0907 125.213 33.6583C124.732 33.202 124.492 32.6376 124.492 31.965V17.3738H116.422C115.75 17.3738 115.185 17.1336 114.729 16.6533C114.248 16.1969 114.008 15.6325 114.008 14.9599ZM146.073 11.9696C146.721 11.9937 147.274 12.2338 147.73 12.6902C148.186 13.1225 148.427 13.6629 148.451 14.3114V20.3281H160.16V14.3114C160.184 13.6389 160.436 13.0865 160.916 12.6542C161.397 12.1978 161.973 11.9696 162.646 11.9696C163.294 11.9937 163.847 12.2338 164.303 12.6902C164.759 13.1225 164.999 13.6629 165.023 14.3114V31.965C164.879 33.4062 164.087 34.1868 162.646 34.3068C161.973 34.3068 161.385 34.0907 160.88 33.6583C160.4 33.202 160.16 32.6376 160.16 31.965V25.1558H148.451V31.965C148.307 33.4062 147.514 34.1868 146.073 34.3068C145.4 34.3068 144.812 34.0907 144.308 33.6583C143.827 33.202 143.587 32.6376 143.587 31.965V14.3114C143.611 13.6389 143.863 13.0865 144.344 12.6542C144.824 12.1978 145.4 11.9696 146.073 11.9696ZM177.597 28.2182C177.597 27.5456 177.825 26.9812 178.282 26.5249C178.762 26.0445 179.338 25.8043 180.011 25.8043H185.523L184.587 23.1382C184.202 22.1535 183.818 21.2288 183.434 20.3641C183.073 19.4754 182.653 18.6708 182.173 17.9503C181.74 17.2297 181.248 16.8454 180.696 16.7974C180.119 16.8454 179.603 17.2297 179.146 17.9503C178.69 18.6708 178.27 19.4754 177.885 20.3641C177.525 21.2288 177.153 22.1535 176.768 23.1382L173.346 32.5055C173.106 33.0098 172.793 33.4302 172.409 33.7664C172.049 34.0787 171.496 34.2348 170.752 34.2348C170.055 34.2348 169.479 33.9946 169.023 33.5142C168.59 33.0339 168.398 32.4574 168.446 31.7849C168.47 31.4727 168.542 31.1844 168.662 30.9202L172.625 20.6884C173.73 17.9983 174.835 15.8246 175.94 14.1673C177.021 12.5341 178.606 11.7054 180.696 11.6814C182.761 11.7054 184.334 12.5341 185.415 14.1673C186.52 15.7766 187.625 17.9503 188.73 20.6884L192.693 30.9202C192.813 31.1844 192.885 31.4727 192.909 31.7849C192.957 32.4574 192.753 33.0339 192.296 33.5142C191.864 33.9946 191.3 34.2348 190.603 34.2348C189.811 34.2348 189.222 34.0787 188.838 33.7664C188.478 33.4302 188.177 33.0098 187.937 32.5055L187.253 30.632H180.011C179.338 30.632 178.774 30.3918 178.318 29.9115C177.837 29.4551 177.597 28.8907 177.597 28.2182ZM208.005 11.5733C209.254 11.5733 210.478 11.7175 211.679 12.0057C212.904 12.2939 214.069 12.7262 215.174 13.3027C216.279 13.8551 217.252 14.5997 218.092 15.5364C218.957 16.4731 219.425 17.59 219.497 18.887V20.4001V31.893C219.353 33.3341 218.561 34.1147 217.12 34.2348C216.447 34.2348 215.859 34.0186 215.354 33.5863C214.874 33.1299 214.634 32.5655 214.634 31.893V20.0038C214.586 19.2593 214.297 18.6468 213.769 18.1664C213.265 17.662 212.688 17.2657 212.04 16.9775C211.415 16.6893 210.755 16.4731 210.058 16.329C209.386 16.1849 208.701 16.1128 208.005 16.1128C207.308 16.1128 206.611 16.1849 205.915 16.329C205.242 16.4731 204.582 16.6893 203.933 16.9775C203.309 17.2657 202.732 17.662 202.204 18.1664C201.7 18.6468 201.423 19.2593 201.375 20.0038V31.893C201.255 33.3341 200.475 34.1147 199.034 34.2348C198.361 34.2348 197.773 34.0186 197.268 33.5863C196.788 33.1299 196.548 32.5655 196.548 31.893V20.4001V18.887C196.62 17.59 197.076 16.4731 197.917 15.5364C198.757 14.5997 199.73 13.8551 200.835 13.3027C201.94 12.7262 203.093 12.2939 204.294 12.0057C205.519 11.7175 206.756 11.5733 208.005 11.5733ZM239.673 12.5461C241.354 12.6422 242.735 13.2907 243.816 14.4916C244.897 15.6685 245.678 17.0135 246.158 18.5267C246.638 20.0399 246.878 21.5891 246.878 23.1743C246.878 24.7595 246.638 26.3087 246.158 27.8219C245.702 29.335 244.921 30.6921 243.816 31.893C242.735 33.0699 241.354 33.7064 239.673 33.8025H226.415C225.766 33.7784 225.214 33.5503 224.757 33.1179C224.325 32.6616 224.097 32.1092 224.073 31.4607V22.5258C224.097 21.8533 224.349 21.3008 224.83 20.8685C225.31 20.4121 225.886 20.184 226.559 20.184C227.207 20.208 227.76 20.4482 228.216 20.9045C228.672 21.3369 228.913 21.8773 228.937 22.5258V28.002C228.937 28.6505 229.273 28.9747 229.945 28.9747H238.448C239.361 28.9267 240.117 28.5784 240.718 27.9299C241.318 27.2814 241.751 26.5489 242.015 25.7322C242.303 24.8916 242.447 24.0389 242.447 23.1743C242.447 22.3096 242.303 21.469 242.015 20.6523C241.751 19.8117 241.318 19.0671 240.718 18.4186C240.117 17.7701 239.361 17.4218 238.448 17.3738H226.415C224.974 17.2537 224.193 16.4731 224.073 15.032C224.073 14.3595 224.289 13.783 224.721 13.3027C225.178 12.8223 225.742 12.5701 226.415 12.5461H239.673ZM257.507 12.5461H259.164H271.413C272.086 12.5701 272.638 12.8223 273.071 13.3027C273.527 13.783 273.755 14.3595 273.755 15.032C273.635 16.4731 272.854 17.2537 271.413 17.3738H258.732C257.819 17.4218 257.062 17.7701 256.462 18.4186C255.861 19.0671 255.417 19.8117 255.129 20.6523C254.865 21.469 254.733 22.3096 254.733 23.1743C254.733 24.0389 254.865 24.8916 255.129 25.7322C255.417 26.5489 255.861 27.2814 256.462 27.9299C257.062 28.5784 257.819 28.9267 258.732 28.9747H271.413C272.086 28.9988 272.638 29.251 273.071 29.7313C273.527 30.2117 273.755 30.7881 273.755 31.4607C273.731 32.1092 273.491 32.6616 273.035 33.1179C272.602 33.5503 272.062 33.7784 271.413 33.8025H258.191H257.507C255.825 33.7064 254.432 33.0699 253.327 31.893C252.247 30.6921 251.466 29.335 250.986 27.8219C250.529 26.3087 250.301 24.7595 250.301 23.1743C250.301 21.5891 250.541 20.0399 251.022 18.5267C251.502 17.0135 252.283 15.6685 253.363 14.4916C254.444 13.2907 255.825 12.6422 257.507 12.5461ZM273.683 23.0302C273.683 23.7027 273.443 24.2671 272.963 24.7235C272.506 25.2038 271.942 25.444 271.269 25.444H260.389C259.716 25.444 259.14 25.2158 258.66 24.7595C258.203 24.2791 257.975 23.7027 257.975 23.0302C257.975 22.3576 258.203 21.7812 258.66 21.3008C259.14 20.8445 259.716 20.6163 260.389 20.6163H271.269C271.942 20.6163 272.506 20.8565 272.963 21.3369C273.443 21.7932 273.683 22.3576 273.683 23.0302ZM284.239 31.893C283.134 30.2357 282.03 28.062 280.925 25.372L276.962 15.1401C276.842 14.8759 276.769 14.5877 276.745 14.2754C276.697 13.6029 276.89 13.0265 277.322 12.5461C277.778 12.0657 278.355 11.8255 279.051 11.8255C279.796 11.8255 280.348 11.9937 280.709 12.3299C281.093 12.6422 281.405 13.0505 281.645 13.5549L285.068 22.9221C285.452 23.9068 285.824 24.8436 286.185 25.7322C286.569 26.5969 286.989 27.3895 287.446 28.1101C287.902 28.8306 288.418 29.2149 288.995 29.263C289.547 29.2149 290.04 28.8306 290.472 28.1101C290.952 27.3895 291.373 26.5969 291.733 25.7322C292.117 24.8436 292.502 23.9068 292.886 22.9221L296.236 13.5549C296.477 13.0505 296.777 12.6422 297.137 12.3299C297.521 11.9937 298.11 11.8255 298.903 11.8255C299.599 11.8255 300.164 12.0657 300.596 12.5461C301.052 13.0265 301.256 13.6029 301.208 14.2754C301.184 14.5877 301.112 14.8759 300.992 15.1401L297.029 25.372C295.924 28.1101 294.819 30.2958 293.715 31.929C292.634 33.5383 291.06 34.3549 288.995 34.3789C286.905 34.3549 285.32 33.5262 284.239 31.893Z" fill="url(#paint2_linear_233_2968)"/>
<defs>
<linearGradient id="paint0_linear_233_2968" x1="22.52" y1="2.10657" x2="22.52" y2="46.9712" gradientUnits="userSpaceOnUse">
<stop stop-color="#DEDEDE"/>
<stop offset="1" stop-color="#464646"/>
</linearGradient>
<linearGradient id="paint1_linear_233_2968" x1="22.52" y1="2.10657" x2="22.52" y2="46.9712" gradientUnits="userSpaceOnUse">
<stop stop-color="#DEDEDE"/>
<stop offset="1" stop-color="#464646"/>
</linearGradient>
<linearGradient id="paint2_linear_233_2968" x1="57.877" y1="20.3745" x2="302.877" y2="20.3745" gradientUnits="userSpaceOnUse">
<stop stop-color="#848484"/>
<stop offset="0.525" stop-color="#8D8D8D"/>
<stop offset="1" stop-color="#AFAFAF"/>
</linearGradient>
</defs>
</svg>
