<svg width="44" height="44" viewBox="0 0 44 44" fill="none" xmlns="http://www.w3.org/2000/svg">
<rect width="44" height="44" rx="22" fill="#C8C8C8"/>
<path fill-rule="evenodd" clip-rule="evenodd" d="M23.1339 15.1984C23.3985 14.9339 23.8273 14.9339 24.0919 15.1984L30.4145 21.5209C30.5416 21.6479 30.6129 21.8203 30.6129 21.9999C30.6129 22.1796 30.5416 22.3519 30.4145 22.479L24.0919 28.8016C23.8273 29.0661 23.3985 29.0661 23.1339 28.8016C22.8694 28.537 22.8694 28.1081 23.1339 27.8435L28.3 22.6773H13.6774C13.3033 22.6773 13 22.374 13 21.9999C13 21.6258 13.3033 21.3225 13.6774 21.3225H28.3L23.1339 16.1564C22.8694 15.8919 22.8694 15.463 23.1339 15.1984Z" fill="#1C1C1C"/>
</svg>
