<svg width="32" height="33" viewBox="0 0 32 33" fill="none" xmlns="http://www.w3.org/2000/svg">
<path d="M4.17444 2.66436C2.98644 2.07036 1.66944 3.20036 2.07544 4.46536L4.93344 13.3484C4.98963 13.523 5.09277 13.6788 5.23158 13.7987C5.37039 13.9187 5.53951 13.9981 5.72044 14.0284L17.5894 16.0074C18.1464 16.1004 18.1464 16.9004 17.5894 16.9934L5.72144 18.9714C5.54033 19.0015 5.371 19.0808 5.232 19.2008C5.093 19.3207 4.98971 19.4766 4.93344 19.6514L2.07544 28.5374C1.66844 29.8024 2.98544 30.9324 4.17444 30.3384L29.1684 17.8434C30.2744 17.2904 30.2744 15.7134 29.1684 15.1594L4.17444 2.66436Z" fill="#B6B6B6"/>
</svg>
