<svg width="44" height="44" viewBox="0 0 44 44" fill="none" xmlns="http://www.w3.org/2000/svg">
<path d="M21.7171 0.855469C18.8652 0.855469 16.0412 1.4172 13.4063 2.50859C10.7715 3.59998 8.37743 5.19965 6.3608 7.21627C2.28805 11.289 0 16.8129 0 22.5726C0 32.1716 6.23282 40.3155 14.8545 43.2039C15.9404 43.3776 16.2879 42.7044 16.2879 42.118V38.4478C10.2722 39.7509 8.9909 35.5377 8.9909 35.5377C7.99191 33.0186 6.58029 32.3453 6.58029 32.3453C4.60403 30.9989 6.73231 31.0423 6.73231 31.0423C8.90403 31.1943 10.055 33.2792 10.055 33.2792C11.9444 36.5802 15.1368 35.6029 16.3747 35.0817C16.5702 33.6701 17.1348 32.7145 17.7429 32.1716C12.9217 31.6287 7.8616 29.761 7.8616 21.4868C7.8616 19.0761 8.68686 17.1433 10.0985 15.6014C9.8813 15.0585 9.1212 12.7999 10.3156 9.86808C10.3156 9.86808 12.1399 9.28172 16.2879 12.0832C18.0035 11.6055 19.8712 11.3666 21.7171 11.3666C23.5631 11.3666 25.4308 11.6055 27.1464 12.0832C31.2944 9.28172 33.1186 9.86808 33.1186 9.86808C34.3131 12.7999 33.553 15.0585 33.3358 15.6014C34.7474 17.1433 35.5727 19.0761 35.5727 21.4868C35.5727 29.7827 30.4909 31.6069 25.6479 32.1499C26.4298 32.8231 27.1464 34.1478 27.1464 36.1675V42.118C27.1464 42.7044 27.4939 43.3993 28.6015 43.2039C37.2232 40.2938 43.4343 32.1716 43.4343 22.5726C43.4343 19.7207 42.8726 16.8967 41.7812 14.2618C40.6898 11.627 39.0901 9.23289 37.0735 7.21627C35.0569 5.19965 32.6628 3.59998 30.0279 2.50859C27.3931 1.4172 24.5691 0.855469 21.7171 0.855469Z" fill="#E6E6E6"/>
</svg>
