<svg width="43" height="41" viewBox="0 0 43 41" fill="none" xmlns="http://www.w3.org/2000/svg">
<path d="M14.5736 32.8655C14.5736 33.0322 14.4069 33.1155 14.1569 33.1155C13.9069 33.1988 13.7403 33.0322 13.7403 32.8655C13.7403 32.6989 13.9069 32.5322 14.1569 32.5322C14.4069 32.5322 14.5736 32.6989 14.5736 32.8655ZM11.9904 32.4489C12.0737 32.2822 12.3237 32.1989 12.5737 32.2822C12.8237 32.3655 12.907 32.5322 12.907 32.6989C12.8237 32.8655 12.5737 32.9488 12.407 32.8655C12.157 32.8655 11.9904 32.6155 11.9904 32.4489ZM15.7402 32.3655C15.9068 32.2822 16.1568 32.4489 16.1568 32.6155C16.2402 32.7822 16.0735 32.8655 15.8235 32.9488C15.5735 33.0322 15.3235 32.9488 15.3235 32.7822C15.3235 32.5322 15.4902 32.3655 15.7402 32.3655ZM21.1566 0.367026C32.7394 0.367026 42.1556 9.19995 42.1556 20.6994C42.1556 29.949 36.4892 37.8653 28.1563 40.6151C27.073 40.8651 26.6563 40.1985 26.6563 39.6152C26.6563 38.9486 26.7397 35.4487 26.7397 32.6989C26.7397 30.6989 26.073 29.449 25.3231 28.7824C29.9895 28.2824 34.906 27.6158 34.906 19.6161C34.906 17.2829 34.0727 16.1996 32.7394 14.6997C32.9061 14.1164 33.656 11.9498 32.4894 9.03329C30.7395 8.44998 26.7397 11.2832 26.7397 11.2832C25.0731 10.7832 23.3232 10.6165 21.4899 10.6165C19.74 10.6165 17.9901 10.7832 16.3235 11.2832C16.3235 11.2832 12.2404 8.53331 10.5738 9.03329C9.40715 11.9498 10.0738 14.1164 10.3238 14.6997C8.9905 16.1996 8.32387 17.2829 8.32387 19.6161C8.32387 27.6158 13.0736 28.2824 17.7401 28.7824C17.0735 29.3657 16.5735 30.2823 16.4068 31.6156C15.1569 32.1989 12.157 33.1155 10.3238 29.8657C9.15716 27.8657 7.07393 27.6991 7.07393 27.6991C5.07402 27.6991 6.9906 29.0324 6.9906 29.0324C8.32387 29.6157 9.24049 32.0322 9.24049 32.0322C10.4904 35.782 16.3235 34.5321 16.3235 34.5321C16.3235 36.282 16.3235 39.1152 16.3235 39.6985C16.3235 40.1985 15.9902 40.8651 14.9069 40.6985C6.57395 37.8653 0.824219 29.949 0.824219 20.6994C0.824219 9.19995 9.65714 0.367026 21.1566 0.367026ZM8.90718 29.1157C8.9905 29.0324 9.15716 29.1157 9.32382 29.199C9.49048 29.3657 9.49048 29.6157 9.40715 29.699C9.24049 29.7823 9.07383 29.699 8.90718 29.6157C8.82385 29.449 8.74052 29.199 8.90718 29.1157ZM7.99055 28.449C8.07388 28.3657 8.15721 28.3657 8.32387 28.449C8.49053 28.5324 8.57386 28.6157 8.57386 28.699C8.49053 28.8657 8.32387 28.8657 8.15721 28.7824C7.99055 28.699 7.90722 28.6157 7.99055 28.449ZM10.6571 31.4489C10.8238 31.2823 11.0737 31.3656 11.2404 31.5322C11.4071 31.6989 11.4071 31.9489 11.3237 32.0322C11.2404 32.1989 10.9904 32.1155 10.8238 31.9489C10.5738 31.7822 10.5738 31.5322 10.6571 31.4489ZM9.74047 30.199C9.90713 30.1156 10.0738 30.199 10.2404 30.3656C10.3238 30.5323 10.3238 30.7823 10.2404 30.8656C10.0738 30.9489 9.90713 30.8656 9.74047 30.6989C9.57381 30.5323 9.57381 30.2823 9.74047 30.199Z" fill="#FAFAFA"/>
</svg>
