<svg width="39" height="46" viewBox="0 0 39 46" fill="none" xmlns="http://www.w3.org/2000/svg">
<path d="M19.6503 13.0375C24.9846 13.0375 29.3876 17.4405 29.3876 22.7748C29.3876 28.1939 24.9846 32.5122 19.6503 32.5122C14.2312 32.5122 9.91291 28.1939 9.91291 22.7748C9.91291 17.4405 14.2312 13.0375 19.6503 13.0375ZM19.6503 29.1253C23.1218 29.1253 25.916 26.3311 25.916 22.7748C25.916 19.3033 23.1218 16.5091 19.6503 16.5091C16.094 16.5091 13.2998 19.3033 13.2998 22.7748C13.2998 26.3311 16.1787 29.1253 19.6503 29.1253ZM32.0125 12.6988C32.0125 13.9689 30.9964 14.985 29.7263 14.985C28.4562 14.985 27.4401 13.9689 27.4401 12.6988C27.4401 11.4287 28.4562 10.4126 29.7263 10.4126C30.9964 10.4126 32.0125 11.4287 32.0125 12.6988ZM38.4476 14.985C38.6169 18.1179 38.6169 27.5165 38.4476 30.6494C38.2782 33.6976 37.6008 36.3225 35.3994 38.6086C33.1979 40.8101 30.4883 41.4875 27.4401 41.6568C24.3072 41.8262 14.9086 41.8262 11.7757 41.6568C8.72749 41.4875 6.10264 40.8101 3.81648 38.6086C1.61499 36.3225 0.937612 33.6976 0.768266 30.6494C0.598921 27.5165 0.598921 18.1179 0.768266 14.985C0.937612 11.9368 1.61499 9.22723 3.81648 7.02575C6.10264 4.82426 8.72749 4.14688 11.7757 3.97753C14.9086 3.80819 24.3072 3.80819 27.4401 3.97753C30.4883 4.14688 33.1979 4.82426 35.3994 7.02575C37.6008 9.22723 38.2782 11.9368 38.4476 14.985ZM34.3833 33.9516C35.3994 31.4961 35.1453 25.569 35.1453 22.7748C35.1453 20.0653 35.3994 14.1382 34.3833 11.5981C33.7059 9.98929 32.4358 8.63452 30.827 8.04182C28.2869 7.02575 22.3598 7.27976 19.6503 7.27976C16.8561 7.27976 10.929 7.02575 8.47347 8.04182C6.78002 8.7192 5.50993 9.98929 4.83255 11.5981C3.81648 14.1382 4.0705 20.0653 4.0705 22.7748C4.0705 25.569 3.81648 31.4961 4.83255 33.9516C5.50993 35.6451 6.78002 36.9152 8.47347 37.5925C10.929 38.6086 16.8561 38.3546 19.6503 38.3546C22.3598 38.3546 28.2869 38.6086 30.827 37.5925C32.4358 36.9152 33.7906 35.6451 34.3833 33.9516Z" fill="#FAFAFA"/>
</svg>
