<svg width="33" height="34" viewBox="0 0 33 34" fill="none" xmlns="http://www.w3.org/2000/svg">
<path d="M7.24111 33.2897H0.506878V11.6387H7.24111V33.2897ZM3.83779 8.7423C1.73787 8.7423 0 6.93202 0 4.75969C0 2.65977 1.73787 0.921899 3.83779 0.921899C6.01012 0.921899 7.74799 2.65977 7.74799 4.75969C7.74799 6.93202 6.01012 8.7423 3.83779 8.7423ZM32.3678 33.2897H25.706V22.7901C25.706 20.2557 25.6335 17.0696 22.1578 17.0696C18.6821 17.0696 18.1752 19.7488 18.1752 22.5728V33.2897H11.441V11.6387H17.8855V14.6076H17.958C18.8993 12.9421 21.0716 11.1319 24.3301 11.1319C31.1368 11.1319 32.4402 15.6214 32.4402 21.4142V33.2897H32.3678Z" fill="#FAFAFA"/>
</svg>
