<svg width="51" height="35" viewBox="0 0 51 35" fill="none" xmlns="http://www.w3.org/2000/svg">
<path d="M25.9934 10.7763C24.1848 10.7763 22.4502 11.4947 21.1713 12.7737C19.8923 14.0526 19.1738 15.7872 19.1738 17.5958C19.1738 19.4045 19.8923 21.1391 21.1713 22.418C22.4502 23.6969 24.1848 24.4154 25.9934 24.4154C27.8021 24.4154 29.5367 23.6969 30.8156 22.418C32.0945 21.1391 32.813 19.4045 32.813 17.5958C32.813 15.7872 32.0945 14.0526 30.8156 12.7737C29.5367 11.4947 27.8021 10.7763 25.9934 10.7763ZM25.9934 28.9618C22.979 28.9618 20.088 27.7643 17.9565 25.6328C15.8249 23.5013 14.6275 20.6103 14.6275 17.5958C14.6275 14.5814 15.8249 11.6904 17.9565 9.55888C20.088 7.42735 22.979 6.22986 25.9934 6.22986C29.0079 6.22986 31.8989 7.42735 34.0304 9.55888C36.1619 11.6904 37.3594 14.5814 37.3594 17.5958C37.3594 20.6103 36.1619 23.5013 34.0304 25.6328C31.8989 27.7643 29.0079 28.9618 25.9934 28.9618ZM25.9934 0.546875C14.6275 0.546875 4.92091 7.61651 0.988281 17.5958C4.92091 27.5752 14.6275 34.6448 25.9934 34.6448C37.3594 34.6448 47.066 27.5752 50.9986 17.5958C47.066 7.61651 37.3594 0.546875 25.9934 0.546875Z" fill="#858585"/>
</svg>
