<svg width="62" height="62" viewBox="0 0 62 62" fill="none" xmlns="http://www.w3.org/2000/svg">
<g clip-path="url(#clip0_193_12466)">
<rect width="61.9416" height="61.9416" rx="30.9708" fill="black"/>
<g clip-path="url(#clip1_193_12466)">
<path d="M23.6762 31.7748L25.19 32.1865C26.1553 32.45 26.6367 32.5818 26.9736 32.9187C27.3106 33.2557 27.4423 33.7371 27.7046 34.7011L28.1176 36.2162C29.2944 40.5296 29.8822 42.6857 31.1743 42.7567C32.4665 42.8251 33.2823 40.7425 34.9114 36.5798L39.3832 25.1507C40.6626 21.8824 41.3024 20.247 40.4739 19.4185C39.6454 18.59 38.01 19.2297 34.7416 20.5092L23.3126 24.981C19.1499 26.6101 17.0673 27.4259 17.1357 28.718C17.2041 30.0102 19.3615 30.5967 23.6762 31.7748Z" stroke="#847D7D" stroke-width="1.79152"/>
</g>
</g>
<rect x="0.45741" y="0.45741" width="61.0268" height="61.0268" rx="30.5134" stroke="#6B6B6B" stroke-width="0.914819"/>
<defs>
<clipPath id="clip0_193_12466">
<rect width="61.9416" height="61.9416" rx="30.9708" fill="white"/>
</clipPath>
<clipPath id="clip1_193_12466">
<rect width="42.9965" height="42.9965" fill="white" transform="translate(1.83008 27.6587) rotate(-45)"/>
</clipPath>
</defs>
</svg>
