<svg width="32" height="32" viewBox="0 0 32 32" fill="none" xmlns="http://www.w3.org/2000/svg">
<rect x="0.429787" y="0.429787" width="30.9447" height="30.9447" rx="15.4723" fill="black" fill-opacity="0.05"/>
<rect x="0.429787" y="0.429787" width="30.9447" height="30.9447" rx="15.4723" stroke="#DFDFDF" stroke-width="0.859574"/>
<path d="M13.0136 18.4734L22.7802 8.70685M13.0136 18.4734L16.1212 24.6885C16.1601 24.7735 16.2227 24.8455 16.3014 24.896C16.3801 24.9465 16.4716 24.9734 16.5651 24.9734C16.6586 24.9734 16.7502 24.9465 16.8289 24.896C16.9076 24.8455 16.9701 24.7735 17.0091 24.6885L22.7802 8.70685M13.0136 18.4734L6.79856 15.3659C6.71356 15.3269 6.64152 15.2644 6.59102 15.1857C6.54052 15.107 6.51367 15.0154 6.51367 14.9219C6.51367 14.8284 6.54052 14.7369 6.59102 14.6582C6.64152 14.5795 6.71356 14.5169 6.79856 14.478L22.7802 8.70685" stroke="#DEDEDE" stroke-width="1.77574" stroke-linecap="round" stroke-linejoin="round"/>
</svg>
